<?xml version="1.0" standalone="no"?>
<!DOCTYPE svg PUBLIC "-//W3C//DTD SVG 20010904//EN"
 "http://www.w3.org/TR/2001/REC-SVG-20010904/DTD/svg10.dtd">
<svg version="1.0" xmlns="http://www.w3.org/2000/svg"
 width="390.074063pt" height="499.999899pt" viewBox="0 0 390.074063 499.999899"
 preserveAspectRatio="xMidYMid meet">
<metadata>
Created by potrace 1.12, written by Peter Selinger 2001-2015
</metadata>
<g transform="translate(-8.000000,506.000000) scale(0.100000,-0.100000)"
fill="#000000" stroke="none">
<path d="M80 3523 c0 -980 4 -1581 11 -1656 43 -495 328 -934 839 -1297 261
-185 593 -352 939 -472 139 -49 179 -50 303 -7 509 174 954 431 1267 734 280
270 447 566 517 915 16 78 18 225 21 1703 l4 1617 -1951 0 -1950 0 0 -1537z
m723 1304 c24 -15 52 -38 62 -53 17 -26 17 -28 -1 -41 -10 -7 -35 -19 -56 -25
-34 -10 -38 -9 -61 18 -23 26 -31 29 -90 29 -106 0 -107 -1 -107 -220 0 -172
1 -183 21 -201 15 -14 36 -19 76 -19 48 0 58 4 79 29 19 21 24 38 22 65 l-3
36 -63 3 -63 3 3 47 3 47 100 3 c156 4 147 11 143 -116 -3 -93 -6 -111 -26
-140 -40 -56 -93 -76 -197 -77 -78 0 -96 3 -135 25 -27 15 -53 41 -67 65 -21
38 -23 51 -23 228 0 215 6 241 71 284 53 35 91 43 186 39 66 -3 91 -9 126 -29z
m1249 1 c59 -32 85 -75 94 -155 10 -93 -1 -324 -16 -354 -24 -46 -64 -80 -114
-94 -140 -42 -286 12 -316 116 -13 45 -13 344 0 391 12 42 76 105 117 114 16
3 33 8 38 10 6 2 43 2 82 0 52 -3 85 -11 115 -28z m-677 11 c49 -13 100 -51
119 -87 38 -77 25 -147 -40 -209 l-36 -34 53 -135 c35 -91 49 -138 42 -145 -6
-6 -34 -9 -64 -7 l-53 3 -52 130 -52 130 -51 3 -50 3 -3 -133 -3 -133 -48 -3
c-27 -2 -55 2 -63 9 -11 9 -14 63 -14 299 0 159 3 295 6 304 5 13 27 16 138
16 72 0 149 -5 171 -11z m1341 -13 c3 -13 4 -35 2 -47 -3 -22 -8 -24 -75 -27
l-73 -3 -2 -262 -3 -262 -48 -3 c-79 -5 -77 -13 -77 274 l0 254 -70 0 -70 0 0
43 c0 24 3 47 7 50 3 4 95 7 204 7 l199 0 6 -24z m582 -28 l3 -48 -70 0 -71 0
0 -254 c0 -287 2 -279 -77 -274 l-48 3 -3 262 -2 262 -73 3 c-67 3 -72 5 -75
27 -2 12 -1 34 2 47 l6 24 203 -2 202 -3 3 -47z m307 -263 l0 -310 -55 0 -55
0 -3 300 c-1 165 0 306 3 313 3 9 21 12 57 10 l53 -3 0 -310z m-945 -635 l0
-100 -630 0 -630 0 0 100 0 100 630 0 630 0 0 -100z m921 -316 c105 -31 175
-134 200 -293 7 -46 9 -295 6 -743 -4 -755 -3 -746 -81 -948 -157 -404 -520
-801 -914 -999 -190 -96 -384 -140 -487 -111 -61 17 -133 83 -172 157 -36 68
-79 200 -89 272 -4 28 -10 51 -14 51 -4 0 -11 -23 -14 -52 -12 -84 -63 -231
-104 -294 -90 -139 -181 -169 -372 -124 -106 26 -167 48 -272 101 -410 205
-781 618 -926 1031 -67 188 -65 166 -69 911 -3 452 -1 702 6 748 27 169 100
272 216 300 17 4 705 7 1531 8 1347 1 1506 -1 1555 -15z"/>
<path d="M1864 4746 c-17 -8 -34 -21 -38 -31 -3 -9 -6 -93 -6 -186 0 -155 2
-171 20 -189 38 -38 122 -38 161 1 17 17 19 34 19 188 0 93 -3 177 -6 186 -16
40 -93 56 -150 31z"/>
<path d="M1190 4670 l0 -80 75 0 c67 0 79 3 100 25 24 24 31 57 19 90 -11 28
-60 45 -129 45 l-65 0 0 -80z"/>
<path d="M1461 3053 c-35 -175 -69 -323 -75 -330 -6 -6 -148 -39 -316 -72
-168 -34 -313 -65 -323 -69 -12 -5 72 -41 275 -119 253 -96 904 -346 978 -375
22 -8 -14 -24 -275 -124 -505 -194 -633 -243 -817 -312 -98 -37 -178 -69 -178
-72 0 -3 145 -34 323 -69 177 -35 327 -69 333 -75 9 -9 119 -529 132 -623 4
-30 22 -48 22 -22 0 6 41 117 91 247 50 130 141 365 201 522 179 465 193 500
198 500 5 0 19 -35 198 -500 60 -157 151 -392 201 -522 50 -130 91 -241 91
-247 0 -6 5 -11 10 -11 6 0 10 7 10 15 0 25 120 619 129 634 5 10 102 34 292
73 156 32 303 61 327 64 23 4 42 9 42 13 0 3 -80 36 -178 73 -184 69 -312 118
-817 312 -261 100 -297 116 -275 124 74 29 725 279 978 375 203 78 287 114
275 119 -10 4 -155 35 -323 69 -168 33 -310 66 -316 72 -6 7 -40 155 -75 330
-35 174 -66 317 -69 317 -3 0 -38 -84 -77 -187 -39 -104 -148 -387 -242 -630
-94 -243 -171 -447 -171 -453 0 -5 -4 -10 -10 -10 -5 0 -10 5 -10 10 0 6 -77
210 -171 453 -94 243 -203 526 -242 630 -39 103 -74 187 -77 187 -3 0 -34
-143 -69 -317z"/>
</g>
</svg>
