<?xml version="1.0" standalone="no"?>
<!DOCTYPE svg PUBLIC "-//W3C//DTD SVG 20010904//EN"
 "http://www.w3.org/TR/2001/REC-SVG-20010904/DTD/svg10.dtd">
<svg version="1.0" xmlns="http://www.w3.org/2000/svg"
 width="390.137385pt" height="500.541107pt" viewBox="0 0 390.137385 500.541107"
 preserveAspectRatio="xMidYMid meet">
<metadata>
Created by potrace 1.12, written by Peter Selinger 2001-2015
</metadata>
<g transform="translate(-7.931307,506.000000) scale(0.100000,-0.100000)"
fill="#000000" stroke="none">
<path d="M83 3443 c4 -1789 -1 -1664 68 -1888 151 -489 577 -925 1224 -1250
206 -104 499 -220 617 -244 53 -11 61 -10 175 28 487 163 949 428 1256 721
295 281 462 573 534 930 15 78 17 226 20 1703 l4 1617 -1951 0 -1951 0 4
-1617z m432 1453 c56 -19 68 -46 45 -105 -48 -121 -80 -212 -80 -227 0 -12 6
-15 23 -10 105 32 229 6 240 -51 8 -44 -7 -53 -90 -53 -40 0 -103 -7 -138 -16
-77 -20 -107 -14 -135 26 -40 56 -37 93 20 261 48 141 67 189 73 189 1 0 20
-6 42 -14z m1768 -123 c7 -15 6 -30 -2 -50 -6 -15 -18 -63 -26 -106 -19 -102
-70 -176 -121 -177 -20 0 -72 48 -91 83 -9 17 -12 14 -27 -20 -28 -62 -32 -68
-54 -71 -25 -4 -51 31 -58 79 -4 28 7 60 61 172 37 77 72 137 80 137 7 0 28
-12 45 -27 29 -24 31 -30 25 -67 -10 -68 -11 -136 0 -137 17 -3 45 55 56 117
6 32 17 74 25 92 l14 33 31 -18 c17 -10 36 -28 42 -40z m1001 3 c26 -29 46
-80 46 -116 0 -40 -36 -73 -96 -90 -37 -11 -43 -15 -32 -26 7 -7 45 -21 83
-31 l70 -19 0 -39 c0 -38 -2 -40 -33 -43 -40 -4 -124 22 -174 54 l-36 23 -6
-24 c-7 -26 -40 -50 -56 -40 -6 4 -16 18 -24 33 -12 24 -11 40 10 140 27 127
29 133 48 126 8 -3 30 14 52 41 21 26 47 51 59 55 22 9 57 -9 89 -44z m386 34
c29 -29 25 -50 -18 -95 -33 -34 -103 -145 -174 -274 -19 -35 -42 -39 -70 -14
-26 23 -22 60 11 117 28 49 28 50 10 80 -19 34 -41 158 -32 182 6 17 24 18 57
2 24 -10 46 -57 46 -97 0 -11 5 -10 20 4 11 10 20 22 20 27 0 15 80 88 96 88
8 0 23 -9 34 -20z m-2565 -6 c53 -35 19 -68 -99 -95 -88 -21 -111 -45 -31 -34
37 6 45 4 69 -20 23 -23 25 -29 14 -42 -20 -25 -73 -43 -122 -43 -42 0 -56
-10 -56 -41 0 -10 79 -4 136 11 26 6 36 3 58 -17 25 -23 26 -27 13 -46 -20
-31 -78 -47 -178 -50 -101 -2 -115 5 -130 72 -8 36 -6 48 21 101 24 47 28 65
20 80 -16 30 -12 78 8 88 9 5 49 16 87 25 131 30 158 32 190 11z m329 -5 c46
-36 36 -63 -43 -104 -44 -23 -91 -59 -128 -98 l-58 -62 35 -2 c19 -2 60 3 90
10 57 13 58 14 48 71 -2 10 8 26 23 38 l26 19 61 -36 c34 -19 64 -40 67 -45
11 -18 22 -10 39 28 14 30 15 46 7 82 -7 30 -7 48 0 57 14 16 98 40 193 54 69
10 79 10 96 -6 23 -21 26 -48 8 -63 -11 -8 -164 -52 -183 -52 -3 0 -5 -5 -5
-10 0 -7 17 -8 48 -4 42 5 50 3 71 -20 13 -14 21 -31 18 -39 -8 -22 -71 -47
-121 -47 -36 0 -48 -4 -56 -21 -7 -11 -9 -23 -6 -26 3 -3 43 1 91 9 84 14 85
14 106 -8 43 -45 -4 -82 -123 -96 -113 -14 -153 -2 -169 52 -11 38 -12 38 -35
23 -41 -26 -176 -63 -256 -70 -63 -5 -82 -3 -103 11 -30 20 -55 71 -55 113 0
31 40 97 85 140 43 40 167 122 186 122 9 1 28 -8 43 -20z m1011 -20 c82 -38
142 -96 151 -145 9 -47 -7 -77 -63 -120 -51 -39 -186 -96 -207 -88 -31 12 -37
73 -16 144 15 47 18 77 13 110 -4 25 -5 50 -4 55 2 6 3 23 2 38 -3 57 15 58
124 6z m432 26 c16 -4 23 -17 28 -48 13 -81 27 -127 40 -127 7 0 23 -9 36 -19
l24 -19 -22 -24 c-14 -14 -23 -37 -23 -55 0 -34 -30 -79 -60 -88 -22 -7 -63
11 -55 24 2 5 -2 15 -11 22 -14 12 -14 14 5 21 40 14 22 27 -29 21 -32 -4 -55
-2 -64 6 -16 14 -28 -1 -39 -50 -4 -14 -18 -31 -33 -38 -22 -10 -30 -9 -45 5
-29 26 -23 58 32 178 55 120 73 146 100 146 10 0 27 14 39 30 14 19 28 29 38
26 10 -2 27 -7 39 -11z m-2453 -570 c3 -8 12 -15 20 -15 21 0 46 -52 46 -95 0
-25 4 -35 15 -35 30 0 72 29 128 89 31 34 62 61 70 61 22 0 79 -66 79 -92 0
-44 -30 -213 -47 -260 -12 -34 -24 -49 -47 -59 -25 -10 -31 -10 -39 2 -18 28
-22 64 -12 123 6 34 9 62 8 64 -1 1 -26 -12 -54 -29 -37 -23 -68 -34 -107 -37
-50 -4 -58 -2 -84 23 l-29 28 -11 -29 c-6 -16 -14 -38 -19 -49 -50 -114 -51
-115 -76 -115 -50 0 -67 85 -35 168 33 83 107 225 130 250 24 25 55 29 64 7z
m2111 -22 c14 -21 25 -43 25 -50 0 -20 -31 -29 -90 -26 -30 1 -74 -3 -98 -9
l-43 -11 31 -15 c40 -19 90 -92 90 -130 0 -70 -99 -152 -194 -160 -48 -4 -55
-2 -66 17 -6 12 -10 34 -8 49 3 23 9 28 45 34 61 10 143 55 143 79 0 10 -55
28 -125 39 -73 12 -85 22 -85 76 0 53 23 72 131 108 97 32 105 33 166 35 50 1
54 -1 78 -36z m-1460 -60 c13 -16 22 -35 19 -44 -2 -9 9 -45 26 -80 53 -114
37 -159 -71 -200 -66 -25 -167 -27 -203 -4 -53 35 -57 102 -10 182 29 50 168
173 196 173 10 0 30 -12 43 -27z m443 7 c24 -23 29 -58 10 -65 -7 -2 -43 -6
-80 -10 -63 -6 -67 -8 -79 -38 -7 -18 -25 -60 -41 -95 -32 -71 -32 -75 -16
-101 27 -44 -19 -68 -63 -32 -33 26 -32 95 3 179 l26 62 -49 0 c-40 0 -51 4
-65 25 -8 13 -14 32 -12 42 3 19 19 22 208 38 41 4 77 9 79 11 12 11 60 2 79
-16z m189 -2 c13 -12 23 -33 23 -49 0 -14 12 -52 26 -82 14 -31 28 -72 31 -91
5 -30 1 -40 -24 -63 -48 -45 -130 -68 -226 -65 -84 4 -123 93 -78 180 29 55
178 192 210 192 8 0 25 -10 38 -22z m338 -2 c39 -30 65 -82 65 -129 0 -41 -30
-70 -91 -89 -36 -10 -38 -12 -20 -24 10 -7 45 -19 77 -26 55 -13 59 -15 62
-44 5 -47 -18 -61 -76 -45 -38 10 -108 39 -143 58 -3 2 -11 -8 -17 -22 -16
-34 -52 -30 -70 7 -10 22 -9 42 9 128 15 70 27 104 38 107 9 3 37 28 62 54 25
27 52 49 59 49 7 0 28 -11 45 -24z m721 9 c40 -17 64 -63 64 -125 0 -57 -40
-82 -181 -114 -22 -5 -28 -13 -33 -48 -8 -54 -15 -63 -47 -71 -22 -6 -30 -2
-43 18 -14 21 -15 32 -6 65 7 27 7 46 1 59 -13 24 2 78 29 103 11 10 20 25 20
32 0 22 41 67 74 82 41 17 79 17 122 -1z m331 -7 c13 -12 23 -33 23 -49 0 -14
12 -52 26 -82 14 -31 28 -72 31 -91 5 -31 1 -40 -25 -64 -45 -42 -134 -67
-225 -64 -55 3 -97 46 -97 102 0 41 24 97 57 135 33 38 157 135 172 135 8 0
25 -10 38 -22z m334 1 c37 -26 69 -88 69 -133 0 -40 -30 -69 -91 -88 -36 -10
-38 -12 -20 -24 10 -7 45 -19 77 -26 55 -13 59 -15 62 -44 5 -47 -18 -61 -76
-45 -38 10 -108 39 -143 58 -3 2 -11 -8 -17 -22 -17 -37 -57 -34 -71 6 -14 41
24 228 48 236 9 3 37 28 62 54 25 27 52 49 58 49 7 0 26 -9 42 -21z m456 -1
c25 -23 31 -56 11 -63 -7 -2 -43 -6 -79 -10 l-66 -6 -43 -100 c-39 -89 -42
-102 -30 -123 26 -50 -15 -75 -61 -37 -33 27 -32 105 4 184 l26 57 -49 0 c-42
0 -52 4 -66 25 -8 13 -14 32 -12 42 3 19 19 22 208 38 41 4 77 9 79 11 12 12
58 1 78 -18z m-306 -574 c105 -31 175 -134 200 -293 7 -46 9 -295 6 -743 -3
-635 -5 -678 -24 -763 -106 -463 -511 -955 -978 -1187 -142 -71 -304 -118
-406 -118 -139 0 -238 100 -303 307 -14 44 -28 104 -32 132 -4 28 -10 51 -14
51 -4 0 -11 -23 -14 -52 -12 -84 -63 -231 -104 -294 -90 -139 -181 -169 -372
-124 -106 26 -167 48 -272 101 -410 205 -781 618 -926 1031 -67 188 -65 166
-69 911 -3 452 -1 702 6 748 27 169 100 272 216 300 17 4 705 7 1531 8 1347 1
1506 -1 1555 -15z"/>
<path d="M3181 4684 c-29 -37 -26 -45 11 -30 38 16 44 28 24 45 -11 9 -18 7
-35 -15z"/>
<path d="M2398 4631 c4 -89 -1 -86 80 -43 48 25 52 40 20 69 -23 21 -80 53
-95 53 -4 0 -7 -36 -5 -79z"/>
<path d="M2800 4648 c-8 -13 -19 -28 -23 -35 -6 -9 0 -13 18 -13 29 0 42 22
29 51 -9 19 -9 19 -24 -3z"/>
<path d="M961 4013 c-31 -24 -71 -82 -71 -102 0 -29 153 4 174 38 4 5 -2 28
-14 50 -23 46 -44 49 -89 14z"/>
<path d="M1635 4033 c-26 -6 -82 -60 -101 -96 -13 -24 -13 -28 1 -33 42 -17
165 22 165 51 0 18 -32 85 -39 84 -3 -1 -15 -3 -26 -6z"/>
<path d="M1970 4035 c-27 -28 -25 -29 19 -14 18 6 30 16 28 22 -6 20 -23 17
-47 -8z"/>
<path d="M2650 4050 c-13 -24 -2 -26 53 -7 43 15 39 27 -9 27 -23 0 -37 -6
-44 -20z"/>
<path d="M3025 4032 c-25 -5 -82 -58 -101 -95 -13 -24 -13 -28 1 -33 41 -16
165 21 165 50 0 15 -28 74 -38 79 -4 2 -16 2 -27 -1z"/>
<path d="M3362 4039 c-27 -33 -26 -33 17 -18 33 12 38 21 19 36 -9 8 -20 2
-36 -18z"/>
<path d="M1461 3053 c-35 -175 -69 -323 -75 -330 -6 -6 -148 -39 -316 -72
-168 -34 -313 -65 -323 -69 -12 -5 72 -41 275 -119 253 -96 904 -346 978 -375
22 -8 -14 -24 -275 -124 -505 -194 -633 -243 -817 -312 -98 -37 -178 -69 -178
-72 0 -3 145 -34 323 -69 177 -35 327 -69 333 -75 9 -9 119 -529 132 -623 4
-30 22 -48 22 -22 0 6 41 117 91 247 50 130 141 365 201 522 179 465 193 500
198 500 5 0 19 -35 198 -500 60 -157 151 -392 201 -522 50 -130 91 -241 91
-247 0 -6 5 -11 10 -11 6 0 10 7 10 15 0 25 120 619 129 634 5 10 102 34 292
73 156 32 303 61 327 64 23 4 42 9 42 13 0 3 -80 36 -178 73 -184 69 -312 118
-817 312 -261 100 -297 116 -275 124 74 29 725 279 978 375 203 78 287 114
275 119 -10 4 -155 35 -323 69 -168 33 -310 66 -316 72 -6 7 -40 155 -75 330
-35 174 -66 317 -69 317 -3 0 -38 -84 -77 -187 -39 -104 -148 -387 -242 -630
-94 -243 -171 -447 -171 -453 0 -36 -24 13 -86 178 -161 426 -419 1092 -424
1092 -3 0 -34 -143 -69 -317z"/>
</g>
</svg>
